<?xml version="1.0" encoding="UTF-8"?>
<!DOCTYPE svg PUBLIC "-//W3C//DTD SVG 1.1//EN" "http://www.w3.org/Graphics/SVG/1.1/DTD/svg11.dtd">
<!-- Creator: CorelDRAW X7 -->
<svg xmlns="http://www.w3.org/2000/svg" xml:space="preserve" width="292px" height="50px" version="1.1" style="shape-rendering:geometricPrecision; text-rendering:geometricPrecision; image-rendering:optimizeQuality; fill-rule:evenodd; clip-rule:evenodd"
viewBox="0 0 7711 1310"
 xmlns:xlink="http://www.w3.org/1999/xlink">
 <defs>
  <style type="text/css">
   <![CDATA[
    .str0 {stroke:black;stroke-width:18.6617}
    .fil1 {fill:#056AAD}
    .fil0 {fill:#D84B20}
    .fil2 {fill:white}
   ]]>
  </style>
 </defs>
 <g id="Слой_x0020_1">
  <metadata id="CorelCorpID_0Corel-Layer"/>
  <path class="fil0 str0" d="M5324 225l0 1075 202 0c2,-25 1,-275 1,-322 0,-45 -5,-302 3,-322 18,-3 81,-3 97,-1 6,8 25,66 34,85 42,92 153,172 253,184 477,61 520,-717 32,-699 -32,1 -73,10 -102,21 -10,3 -16,8 -27,13 -13,5 -39,20 -51,30 -35,31 -24,16 -61,57 -22,25 -49,70 -60,101 -4,11 -5,22 -10,32l-107 1 -1 -254 -203 -1zm1138 375c-1,54 0,109 0,163 0,31 1,141 1,164l201 0c2,-28 1,-79 1,-109 0,-54 -4,-240 5,-281 18,-88 86,-119 166,-119l229 -1 0 -191c-21,-3 -166,-2 -258,-1 -30,0 -55,0 -68,0 -226,0 -277,191 -277,375zm681 -374l0 191 230 0 0 -33c105,-9 66,109 78,109 7,1 124,2 138,0 7,-196 -53,-212 -219,-231l-1 -37 -74 0 0 -91 190 -1 1 -60c-43,21 -23,29 -81,29 -30,0 -59,0 -89,0 -39,1 -27,-32 -31,-74l-16 -3 -2 -16 -53 0 -3 16 -16 3c-11,97 8,70 -120,74 -67,0 -36,-7 -80,-28l-1 58 186 1 1 91 -38 2zm-1270 213c101,-58 228,-11 244,109 24,183 -196,264 -289,119 -45,-70 -29,-185 45,-228z"/>
  <path class="fil1" d="M7526 587c-225,285 113,307 59,128 -13,-45 -49,-95 -59,-128z"/>
  <path class="fil1" d="M4855 1082l290 0c34,0 63,28 63,63l0 92c0,34 -29,62 -63,62l-290 0c-34,0 -62,-28 -62,-62l0 -92c0,-35 28,-63 62,-63zm-4793 0l1833 0c34,0 62,30 62,66l0 86c0,36 -28,66 -62,66l-1710 0c-172,0 -248,-218 -123,-218zm2695 0l1532 0c34,0 62,28 62,62l0 94c0,33 -28,61 -62,61l-1532 0c-34,0 -61,-28 -61,-61l0 -94c0,-34 27,-62 61,-62zm2936 1l1956 0c34,0 62,28 62,62l0 93c0,34 -28,62 -62,62l-1956 0c-34,0 -62,-28 -62,-62l0 -93c0,-34 28,-62 62,-62z"/>
  <path class="fil0 str0" d="M4805 603l399 0 0 142 -399 0 0 -142zm-3960 -378c-2,56 -1,260 -1,332 0,224 52,367 299,370 58,0 295,2 335,-1l1 -700 -201 -1 0 494c-120,2 -231,15 -232,-131 -1,-64 3,-327 -1,-362l-200 -1zm-598 189c71,-3 182,-13 231,31 90,79 82,201 -6,265 -65,47 -87,23 -154,33l0 183c530,32 514,-698 63,-701l-224 0c-26,0 -86,-1 -111,1l0 699 200 1 1 -512zm1379 -188l-1 700 200 0 1 -252c130,-7 252,32 252,186 1,73 1,145 1,218 0,72 -3,150 0,221l199 0c2,-67 1,-144 1,-212 0,-63 4,-263 -5,-317 -10,-61 -50,-134 -103,-166l-35 -19c89,-77 137,-100 142,-233 2,-34 4,-95 0,-127l-198 0c-15,110 33,216 -132,265 -23,7 -96,11 -122,8 -6,-47 3,-230 -1,-262 -1,-15 -1,-12 -19,-12 -42,1 -155,-2 -180,2zm777 -1l-1 1074 200 0c3,-71 0,-149 0,-221l0 -654c2,-12 -1,-5 4,-11 13,-9 78,-3 99,-3 34,0 64,3 91,13 101,38 139,190 47,275 -25,22 -33,24 -68,38 -28,11 -68,3 -100,6l0 184c32,1 76,2 107,-2 51,-6 73,-20 105,-33l25 -15c3,-2 6,-3 9,-5 8,-5 9,-7 16,-12 5,-4 10,-7 15,-12 5,-4 8,-8 15,-13 8,-6 21,-22 27,-29 33,-42 62,-94 73,-149 11,-47 10,-104 2,-153 -27,-158 -173,-276 -331,-278l-335 0zm1153 3c188,0 340,157 340,351 0,194 -152,351 -340,351 -187,0 -340,-157 -340,-351 0,-194 153,-351 340,-351zm-1 199c87,0 158,69 158,155 0,86 -71,156 -158,156 -88,0 -159,-70 -159,-156 0,-86 71,-155 159,-155zm481 -200l-1 698 200 1 1 -701c-21,-2 -187,-2 -200,2zm444 -2l0 272 -163 1 -1 207 162 1 2 594 199 0 2 -1074 -201 -1z"/>
  <path class="fil2" d="M7527 641c-61,81 34,86 18,36 -4,-13 -14,-27 -18,-36z"/>
 </g>
</svg>
